<?xml version="1.0" encoding="utf-8"?>
<!DOCTYPE svg PUBLIC "-//W3C//DTD SVG 1.1//EN" "http://www.w3.org/Graphics/SVG/1.1/DTD/svg11.dtd">
<svg version="1.1" id="Bicicleta" xmlns="http://www.w3.org/2000/svg" xmlns:xlink="http://www.w3.org/1999/xlink" x="0px" y="0px"
	 width="30px" height="30px" viewBox="0 0 30 30" enable-background="new 0 0 30 30" xml:space="preserve">
<path fill="#99CC33" d="M21.07,17.449l-5.509,6.189l-0.476,2.484c-0.137,0.713-0.307,0.85-0.817,0.85
	c-0.102,0-0.646-0.102-1.021-0.204c-0.509-0.136-0.68-0.34-0.68-0.681c0-0.102,0-0.203,0.033-0.34l0.137-0.646h-1.327
	C11.241,27.347,9.098,30,5.901,30c-2.959,0-5.51-2.381-5.51-5.545c0-3.095,2.551-5.51,5.51-5.51c0.544,0,1.292,0.102,1.836,0.307
	l0.953-1.973C7.874,16.973,6.752,16.361,6.718,15c0-0.271,0.034-0.612,0.169-0.986l2.62-6.837c0.375-0.918,0.952-1.428,1.395-1.802
	c0.34-0.307,0.612-0.545,0.612-0.817V4.252c-0.102-0.204-0.136-0.409-0.136-0.681c0-0.067,0.067-1.225,0.136-2.244
	C11.581,0.511,12.126,0,13.044,0c0.918,0,1.701,0.612,1.701,1.327c0,0.271-0.102,1.055-0.272,2.448
	c-0.068,0.477-0.51,0.953-1.054,1.088c-0.068,0.17-0.136,0.409-0.136,0.682c0,0.204,0.067,0.407,0.136,0.611l1.632,4.898h3.198
	c0.646,0,1.055,0.407,1.055,0.85h0.578c0.408,0,0.545,0.204,0.68,0.681l2.109,6.395c0.408-0.103,1.02-0.17,1.359-0.17
	c3.266,0,5.58,2.618,5.58,5.577c0,3.3-2.619,5.579-5.58,5.579c-2.959,0-5.543-2.279-5.543-5.579c0-2.312,1.123-4.08,3.197-5.067
	L21.07,17.449z M20.629,16.19l-0.953-2.857H15.05c-0.952,0-1.122-0.068-1.292-0.339l-1.326-2.28l-0.646,3.266l4.421,2.517
	c0.307,0.17,0.51,0.477,0.51,0.783c0,0.305-0.102,0.714-0.135,0.951l-0.681,3.299L20.629,16.19z M13.929,18.912l-4.251-1.293
	L8.69,19.693c1.531,0.748,2.584,2.586,2.721,4.252h1.53L13.929,18.912z M28.316,24.387c0-2.381-1.973-4.285-4.287-4.285
	c-0.271,0-0.576,0.035-0.951,0.103l1.293,3.81c0.102,0.271,0.135,0.373,0.135,0.51c0,0.306-0.238,0.51-0.51,0.51
	s-0.441-0.135-0.613-0.646l-1.291-3.843c-1.395,0.681-2.348,2.211-2.348,3.843c0,2.279,1.973,4.287,4.285,4.287
	C26.309,28.674,28.316,26.666,28.316,24.387L28.316,24.387z M5.901,20.17c-2.279,0-4.252,1.905-4.252,4.252
	c0,2.278,1.973,4.252,4.252,4.252c2.347,0,4.047-1.905,4.218-3.605H5.901c-0.34,0-0.476-0.205-0.476-0.477
	c0-0.137,0.033-0.307,0.136-0.511l1.667-3.706C6.854,20.238,6.343,20.17,5.901,20.17L5.901,20.17z M8.181,20.851l-1.395,3.095h3.368
	C10.051,22.721,9.201,21.428,8.181,20.851z"/>
</svg>
