<?xml version="1.0" encoding="utf-8"?>
<!DOCTYPE svg PUBLIC "-//W3C//DTD SVG 1.1//EN" "http://www.w3.org/Graphics/SVG/1.1/DTD/svg11.dtd">
<svg version="1.1" id="Camion" xmlns="http://www.w3.org/2000/svg" xmlns:xlink="http://www.w3.org/1999/xlink" x="0px" y="0px"
	 width="38px" height="30px" viewBox="0 0 38 30" enable-background="new 0 0 38 30" xml:space="preserve">
<path fill="#99CC33" d="M12.863,24.544c0,1.493-1.235,2.729-2.727,2.729c-1.492,0-2.728-1.235-2.728-2.729
	c0-1.49,1.235-2.726,2.728-2.726C11.627,21.818,12.863,23.054,12.863,24.544L12.863,24.544z M4.681,13.636v-0.64
	c0-0.084,0.128-0.405,0.191-0.468l4.155-4.155c0.064-0.064,0.383-0.191,0.469-0.191h3.366v5.454H4.681z M31.954,24.544
	c0,1.493-1.235,2.729-2.728,2.729c-1.49,0-2.727-1.235-2.727-2.729c0-1.49,1.236-2.726,2.727-2.726
	C30.719,21.818,31.954,23.054,31.954,24.544L31.954,24.544z M37.409,1.363C37.409,0.617,36.79,0,36.045,0H14.227
	c-0.746,0-1.364,0.617-1.364,1.363v4.091H9.454c-0.768,0-1.79,0.427-2.322,0.959l-4.219,4.219C1.741,11.804,1.954,13.487,1.954,15
	v6.818c-0.745,0-1.363,0.617-1.363,1.364c0,1.576,1.662,1.361,2.727,1.361h1.364c0,3.005,2.451,5.456,5.455,5.456
	c3.004,0,5.455-2.451,5.455-5.456h8.182c0,3.005,2.45,5.456,5.454,5.456s5.455-2.451,5.455-5.456c1.065,0,2.728,0.215,2.728-1.361
	V1.363z"/>
</svg>
