<?xml version="1.0" encoding="utf-8"?>
<!DOCTYPE svg PUBLIC "-//W3C//DTD SVG 1.1//EN" "http://www.w3.org/Graphics/SVG/1.1/DTD/svg11.dtd">
<svg version="1.1" id="colorbox_controls" xmlns="http://www.w3.org/2000/svg" xmlns:xlink="http://www.w3.org/1999/xlink"
	 x="0px" y="0px" width="125px" height="50px" viewBox="0 0 125 50" enable-background="new 0 0 125 50" xml:space="preserve">
<rect fill="#FFFFFF" width="125" height="50"/>
<g>
	<g>
		<g>
			<g>
				<path fill="#808080" d="M11.835,13.87c0-0.275,0.225-0.5,0.5-0.5H15.5c0.275,0,0.5-0.225,0.5-0.5V8.969
					c0-0.275-0.225-0.5-0.5-0.5h-3.164c-0.275,0-0.5-0.225-0.5-0.5V5.811c0-0.275-0.173-0.356-0.385-0.182L8.821,7.803
					C8.609,7.978,8.263,8.265,8.051,8.439l-2.628,2.172c-0.212,0.175-0.212,0.462,0,0.637l2.628,2.174
					c0.212,0.175,0.559,0.462,0.771,0.637l2.629,2.174c0.212,0.175,0.385,0.093,0.385-0.182V13.87z"/>
			</g>
		</g>
	</g>
</g>
<g>
	<g>
		<g>
			<g>
				<path fill="#808080" d="M34.202,7.992c0,0.275-0.225,0.5-0.5,0.5h-3.164c-0.275,0-0.5,0.225-0.5,0.5v3.903
					c0,0.275,0.225,0.5,0.5,0.5h3.164c0.275,0,0.5,0.225,0.5,0.5v2.156c0,0.275,0.173,0.356,0.385,0.182l2.629-2.172
					c0.212-0.175,0.559-0.462,0.771-0.637l2.628-2.174c0.212-0.175,0.212-0.462,0-0.638L37.986,8.44
					c-0.212-0.175-0.559-0.462-0.771-0.637l-2.629-2.174c-0.212-0.175-0.385-0.093-0.385,0.182V7.992z"/>
			</g>
		</g>
	</g>
</g>
<g>
	<g>
		<g>
			<g>
				<path fill="#808080" d="M82.628,13.503c0,0.275,0,0.725,0,1v1.549c0,0.275,0.173,0.357,0.386,0.182l2.629-2.172
					c0.212-0.175,0.559-0.462,0.771-0.637l2.627-2.174c0.212-0.175,0.212-0.462,0-0.638L86.414,8.44
					c-0.212-0.175-0.559-0.462-0.771-0.637l-2.63-2.174c-0.212-0.175-0.385-0.093-0.385,0.182V13.503z"/>
			</g>
		</g>
	</g>
</g>
<g>
	<path fill="#808080" d="M62.783,11.4c-0.194-0.194-0.194-0.513,0-0.707l2.703-2.703c0.194-0.194,0.194-0.513,0-0.707L64.284,6.08
		c-0.194-0.194-0.513-0.194-0.707,0l-2.704,2.705c-0.194,0.194-0.513,0.194-0.707,0L57.461,6.08c-0.194-0.194-0.513-0.194-0.707,0
		L55.55,7.283c-0.194,0.194-0.194,0.513,0,0.707l2.705,2.703c0.194,0.194,0.194,0.513,0,0.707l-2.705,2.706
		c-0.194,0.194-0.194,0.513,0,0.707l1.204,1.203c0.194,0.194,0.513,0.194,0.707,0l2.704-2.705c0.194-0.194,0.513-0.194,0.707,0
		l2.704,2.705c0.194,0.194,0.513,0.194,0.707,0l1.203-1.203c0.194-0.194,0.194-0.513,0-0.707L62.783,11.4z"/>
</g>
<g>
	<path fill="#808080" d="M109.571,5.938c0-0.275-0.225-0.5-0.5-0.5l-1.7-0.001c-0.275,0-0.5,0.225-0.5,0.5l-0.001,10.054
		c0,0.275,0.225,0.5,0.5,0.5h1.701c0.275,0,0.5-0.225,0.5-0.5V5.938z"/>
</g>
<g>
	<path fill="#808080" d="M114.167,5.938c0-0.275-0.225-0.5-0.5-0.5l-1.7-0.001c-0.275,0-0.5,0.225-0.5,0.5l-0.001,10.054
		c0,0.275,0.225,0.5,0.5,0.5h1.701c0.275,0,0.5-0.225,0.5-0.5V5.938z"/>
</g>
<g>
	<g>
		<g>
			<g>
				<path d="M11.835,38.87c0-0.275,0.225-0.5,0.5-0.5H15.5c0.275,0,0.5-0.225,0.5-0.5v-3.902c0-0.275-0.225-0.5-0.5-0.5h-3.164
					c-0.275,0-0.5-0.225-0.5-0.5v-2.156c0-0.275-0.173-0.356-0.385-0.182l-2.629,2.172c-0.212,0.175-0.559,0.462-0.771,0.637
					l-2.628,2.173c-0.212,0.175-0.212,0.462,0,0.638l2.628,2.173c0.212,0.175,0.559,0.462,0.771,0.637l2.629,2.174
					c0.212,0.175,0.385,0.093,0.385-0.182V38.87z"/>
			</g>
		</g>
	</g>
</g>
<g>
	<g>
		<g>
			<g>
				<path d="M34.202,32.993c0,0.275-0.225,0.5-0.5,0.5h-3.164c-0.275,0-0.5,0.225-0.5,0.5v3.902c0,0.275,0.225,0.5,0.5,0.5h3.164
					c0.275,0,0.5,0.225,0.5,0.5v2.156c0,0.275,0.173,0.356,0.385,0.182l2.629-2.172c0.212-0.175,0.559-0.462,0.771-0.637
					l2.628-2.173c0.212-0.175,0.212-0.462,0-0.638l-2.628-2.173c-0.212-0.175-0.559-0.462-0.771-0.637l-2.629-2.174
					c-0.212-0.175-0.385-0.093-0.385,0.182V32.993z"/>
			</g>
		</g>
	</g>
</g>
<g>
	<g>
		<g>
			<g>
				<path d="M82.628,38.503c0,0.275,0,0.725,0,1v1.549c0,0.275,0.173,0.357,0.386,0.182l2.629-2.172
					c0.212-0.175,0.559-0.462,0.771-0.637l2.627-2.173c0.212-0.175,0.212-0.462,0-0.638l-2.627-2.173
					c-0.212-0.175-0.559-0.462-0.771-0.637l-2.63-2.174c-0.212-0.175-0.385-0.093-0.385,0.182V38.503z"/>
			</g>
		</g>
	</g>
</g>
<g>
	<path d="M62.783,36.401c-0.194-0.194-0.194-0.513,0-0.707l2.703-2.705c0.194-0.194,0.194-0.513,0-0.707l-1.202-1.201
		c-0.194-0.194-0.513-0.194-0.707,0l-2.704,2.703c-0.194,0.194-0.513,0.194-0.707,0l-2.704-2.703c-0.194-0.194-0.513-0.194-0.708,0
		l-1.203,1.201c-0.195,0.194-0.195,0.513,0,0.707l2.705,2.705c0.194,0.194,0.194,0.513,0,0.707l-2.705,2.705
		c-0.194,0.194-0.194,0.513,0,0.707l1.204,1.203c0.194,0.194,0.513,0.194,0.707,0l2.704-2.705c0.194-0.194,0.513-0.194,0.707,0
		l2.704,2.705c0.194,0.194,0.513,0.194,0.707,0l1.203-1.203c0.194-0.194,0.194-0.513,0-0.707L62.783,36.401z"/>
</g>
<g>
	<path d="M109.571,30.937c0-0.275-0.225-0.5-0.5-0.5h-1.7c-0.275,0-0.5,0.225-0.5,0.5l-0.001,10.053c0,0.275,0.225,0.5,0.5,0.5
		h1.701c0.275,0,0.5-0.225,0.5-0.5V30.937z"/>
</g>
<g>
	<path d="M114.167,30.937c0-0.275-0.225-0.5-0.5-0.5h-1.7c-0.275,0-0.5,0.225-0.5,0.5l-0.001,10.053c0,0.275,0.225,0.5,0.5,0.5
		h1.701c0.275,0,0.5-0.225,0.5-0.5V30.937z"/>
</g>
<rect id="_x3C_Slice_x3E__5_" fill="none" width="125" height="50"/>
</svg>
