<?xml version="1.0" encoding="utf-8"?>
<!DOCTYPE svg PUBLIC "-//W3C//DTD SVG 1.1//EN" "http://www.w3.org/Graphics/SVG/1.1/DTD/svg11.dtd">
<svg version="1.1" id="Guias_x5F_Visibles" xmlns="http://www.w3.org/2000/svg" xmlns:xlink="http://www.w3.org/1999/xlink" x="0px"
	 y="0px" width="14px" height="14px" viewBox="0 0 14 14" enable-background="new 0 0 14 14" xml:space="preserve">
<path fill="#333333" d="M11.285,7C10.332,8.473,8.791,9.5,7,9.5S3.669,8.473,2.714,7c0.53-0.82,1.256-1.523,2.127-1.97
	C4.617,5.409,4.5,5.845,4.5,6.286c0,1.378,1.122,2.499,2.5,2.499c1.379,0,2.5-1.121,2.5-2.499c0-0.441-0.117-0.877-0.34-1.256
	C10.029,5.477,10.756,6.18,11.285,7L11.285,7z M7.268,4.857c0,0.145-0.122,0.268-0.268,0.268c-0.636,0-1.161,0.524-1.161,1.161
	c0,0.144-0.122,0.267-0.268,0.267c-0.145,0-0.268-0.123-0.268-0.267c0-0.933,0.765-1.697,1.696-1.697
	C7.146,4.589,7.268,4.712,7.268,4.857L7.268,4.857z M12,7c0-0.141-0.045-0.268-0.111-0.385C10.861,4.93,8.98,3.785,7,3.785
	c-1.981,0-3.861,1.145-4.889,2.83C2.045,6.732,2,6.859,2,7c0,0.139,0.045,0.268,0.111,0.385C3.139,9.07,5.019,10.215,7,10.215
	c1.98,0,3.861-1.139,4.889-2.83C11.955,7.268,12,7.139,12,7z"/>
</svg>
