<?xml version="1.0" encoding="utf-8"?>
<!DOCTYPE svg PUBLIC "-//W3C//DTD SVG 1.1//EN" "http://www.w3.org/Graphics/SVG/1.1/DTD/svg11.dtd">
<svg version="1.1" id="Guias_x5F_Invisibles" xmlns="http://www.w3.org/2000/svg" xmlns:xlink="http://www.w3.org/1999/xlink"
	 x="0px" y="0px" width="14px" height="14px" viewBox="0 0 14 14" enable-background="new 0 0 14 14" xml:space="preserve">
<path fill="#333333" d="M5.097,9.092C4.115,8.652,3.295,7.898,2.714,7c0.53-0.82,1.256-1.523,2.127-1.97
	C4.617,5.409,4.5,5.845,4.5,6.286c0,0.798,0.385,1.551,1.032,2.019L5.097,9.092z M7.268,4.857c0,0.145-0.122,0.268-0.268,0.268
	c-0.636,0-1.161,0.519-1.161,1.161c0,0.144-0.122,0.267-0.268,0.267c-0.145,0-0.268-0.123-0.268-0.267
	c0-0.933,0.765-1.697,1.696-1.697C7.146,4.589,7.268,4.712,7.268,4.857L7.268,4.857z M9.293,3.791c0-0.062-0.033-0.117-0.088-0.15
	C9.087,3.573,8.563,3.25,8.463,3.25c-0.068,0-0.123,0.033-0.156,0.089L8.004,3.881C7.675,3.819,7.335,3.785,7,3.785
	c-2.06,0-3.783,1.134-4.889,2.83C2.039,6.727,2,6.865,2,7c0,0.139,0.039,0.273,0.111,0.385c0.642,1.004,1.552,1.842,2.634,2.332
	C4.689,9.813,4.5,10.113,4.5,10.203c0,0.066,0.033,0.123,0.089,0.156c0.117,0.066,0.647,0.391,0.748,0.391
	c0.062,0,0.123-0.033,0.156-0.09l0.273-0.496C6.944,8.061,8.11,5.945,9.287,3.842C9.293,3.83,9.293,3.803,9.293,3.791L9.293,3.791z
	 M9.5,6.286c0-0.156-0.018-0.313-0.045-0.47L7.893,8.619C8.857,8.25,9.5,7.322,9.5,6.286L9.5,6.286z M12,7
	c0-0.146-0.039-0.263-0.111-0.385c-0.436-0.72-1.133-1.418-1.824-1.881L9.713,5.359c0.629,0.436,1.16,0.998,1.572,1.641
	c-0.869,1.35-2.248,2.338-3.872,2.479L7,10.215c1.68,0,3.186-0.766,4.279-2.021c0.219-0.25,0.436-0.523,0.609-0.809
	C11.961,7.262,12,7.145,12,7z"/>
</svg>
