<?xml version="1.0" encoding="utf-8"?>
<!DOCTYPE svg PUBLIC "-//W3C//DTD SVG 1.1//EN" "http://www.w3.org/Graphics/SVG/1.1/DTD/svg11.dtd">
<svg version="1.1" id="Layer_1" xmlns="http://www.w3.org/2000/svg" xmlns:xlink="http://www.w3.org/1999/xlink" x="0px" y="0px"
	 width="6px" height="6px" viewBox="0 0 6 6" enable-background="new 0 0 6 6" xml:space="preserve">
<path fill="#FFFFFF" d="M6,4.828c0-0.126-0.051-0.252-0.142-0.344L4.373,3l1.485-1.485C5.949,1.424,6,1.298,6,1.171
	c0-0.126-0.051-0.252-0.142-0.343L5.172,0.141C5.08,0.05,4.955,0,4.828,0S4.576,0.05,4.484,0.141L3,1.626L1.515,0.141
	C1.424,0.05,1.298,0,1.171,0C1.045,0,0.919,0.05,0.828,0.141L0.141,0.829C0.05,0.919,0,1.045,0,1.171
	c0,0.126,0.05,0.253,0.141,0.344L1.626,3L0.141,4.484C0.05,4.576,0,4.702,0,4.828C0,4.955,0.05,5.08,0.141,5.172l0.687,0.688
	C0.919,5.949,1.045,6,1.171,6c0.126,0,0.252-0.051,0.344-0.141L3,4.373l1.485,1.486C4.576,5.949,4.701,6,4.828,6
	S5.08,5.949,5.172,5.859l0.687-0.688C5.949,5.08,6,4.955,6,4.828z"/>
</svg>
